<?xml version="1.0" encoding="UTF-8" standalone="no"?>
<!-- Created with Inkscape (http://www.inkscape.org/) -->

<svg
   xmlns:dc="http://purl.org/dc/elements/1.1/"
   xmlns:cc="http://creativecommons.org/ns#"
   xmlns:rdf="http://www.w3.org/1999/02/22-rdf-syntax-ns#"
   xmlns:svg="http://www.w3.org/2000/svg"
   xmlns="http://www.w3.org/2000/svg"
   xmlns:sodipodi="http://sodipodi.sourceforge.net/DTD/sodipodi-0.dtd"
   xmlns:inkscape="http://www.inkscape.org/namespaces/inkscape"
   width="86.167274mm"
   height="121.3297mm"
   viewBox="0 0 305.31711 429.90837"
   id="svg5356"
   version="1.1"
   inkscape:version="0.91 r13725"
   sodipodi:docname="JavaScript.svg">
  <defs
     id="defs5358" />
  <sodipodi:namedview
     id="base"
     pagecolor="#ffffff"
     bordercolor="#666666"
     borderopacity="1.0"
     inkscape:pageopacity="0.0"
     inkscape:pageshadow="2"
     inkscape:zoom="0.49497475"
     inkscape:cx="-302.03032"
     inkscape:cy="118.16142"
     inkscape:document-units="px"
     inkscape:current-layer="layer1"
     showgrid="false"
     fit-margin-top="0"
     fit-margin-left="0"
     fit-margin-right="0"
     fit-margin-bottom="0"
     inkscape:window-width="1366"
     inkscape:window-height="718"
     inkscape:window-x="0"
     inkscape:window-y="26"
     inkscape:window-maximized="1" />
  <metadata
     id="metadata5361">
    <rdf:RDF>
      <cc:Work
         rdf:about="">
        <dc:format>image/svg+xml</dc:format>
        <dc:type
           rdf:resource="http://purl.org/dc/dcmitype/StillImage" />
        <dc:title></dc:title>
      </cc:Work>
    </rdf:RDF>
  </metadata>
  <g
     inkscape:label="Layer 1"
     inkscape:groupmode="layer"
     id="layer1"
     transform="translate(-171.31604,-220.61525)">
    <g
       id="g5935"
       transform="translate(-17.612662,0.39589792)">
      <path
         style="fill:#ebebeb"
         d="m 277.34878,633.18449 c -33.20103,-9.27455 -60.49533,-16.99834 -60.65401,-17.16398 -0.39852,-0.416 -27.4847,-304.5191 -27.48236,-308.55116 l 0.002,-3.25 152.5,0 c 83.875,0 152.51383,0.3375 152.53073,0.75 0.15961,3.89552 -27.54915,309.96943 -28.12089,310.62643 -1.17597,1.35132 -122.00853,34.62272 -125.40984,34.53176 -1.65,-0.0441 -30.16448,-7.6685 -63.36551,-16.94305 z m 107.23765,-61.11828 c 18.22032,-5.03422 33.50787,-9.48673 33.97233,-9.89446 0.75558,-0.66331 10.57829,-104.75919 10.63316,-112.68462 l 0.0224,-3.23222 -24.25,-0.26778 -24.25,-0.26778 0.21741,-6.5 c 0.11958,-3.575 0.50029,-12.63357 0.84603,-20.13016 l 0.62861,-13.63015 25.37971,-0.73205 25.37971,-0.73205 0.49121,-3.1378 c 0.72342,-4.62115 2.55732,-25.73362 2.55732,-29.44074 l 0,-3.19705 -43.34469,0 -43.3447,0 -0.49718,14.25 c -0.61254,17.55615 -0.29173,99.60504 0.39213,100.28889 0.27303,0.27303 10.96253,-0.21247 23.75444,-1.07889 12.79191,-0.86642 23.49811,-1.33522 23.79156,-1.04178 0.45431,0.45432 -3.57328,50.73683 -4.10671,51.27026 -0.1037,0.1037 -9.85371,2.6064 -21.66669,5.56155 l -21.47816,5.37302 -0.27159,19.18847 c -0.19662,13.89159 0.0441,19.18848 0.87214,19.18848 0.62905,0 16.05127,-4.11891 34.27159,-9.15314 z m -99.15117,-307.09686 0.27903,-13.25 10.25,-0.28498 10.25,-0.28499 0,3.53499 c 0,3.37331 0.16007,3.53498 3.5,3.53498 l 3.5,0 0,-19 0,-19 10,0 10,0 0,29 0,29 -24.02903,0 -24.02902,0 0.27902,-13.25 z m 64.77903,3.79206 0,-9.45793 7.5207,-0.29207 7.52069,-0.29206 -8.02069,-11.17027 -8.0207,-11.17026 0,-8.07974 0,-8.07973 24,0 24,0 0,10.45619 0,10.45619 -6.97286,0.29381 -6.97287,0.29381 6.96051,9 6.9605,9 0.0124,9.25 0.0123,9.25 -23.5,0 -23.5,0 0,-9.45794 z"
         id="path5945"
         inkscape:connector-curvature="0" />
      <path
         style="fill:#f5a468"
         d="m 278.26731,633.12085 c -33.24584,-9.2925 -60.73394,-17.23432 -61.08467,-17.64848 -0.35073,-0.41416 -6.59608,-68.02802 -13.87856,-150.25302 -7.28247,-82.225 -13.49613,-152.08895 -13.80812,-155.25321 l -0.56726,-5.75322 152.3928,0.25322 152.39279,0.25321 -0.33016,5.5 c -0.60222,10.03206 -27.02723,305.19085 -27.35155,305.50789 -0.77932,0.76182 -123.78005,34.48123 -125.44904,34.39059 -1.02809,-0.0558 -29.07039,-7.70447 -62.31623,-16.99698 z m 54.94698,-157.9015 0,-107 -16,0 c -14.57076,0 -16.00016,0.15632 -16.00175,1.75 -0.003,3.07527 4.92453,148.43861 5.30512,156.5 0.30587,6.47876 0.11259,7.75 -1.17831,7.75 -1.4138,0 -20.19053,-4.99877 -20.95702,-5.57921 -0.18258,-0.13826 -0.73149,-4.8509 -1.21979,-10.47254 -0.4883,-5.62164 -1.06718,-10.40052 -1.2864,-10.61973 -0.75855,-0.75855 -22.749,-4.57471 -23.2832,-4.0405 -0.74367,0.74367 4.51447,58.01624 5.40259,58.84594 0.39532,0.3693 16.01876,4.95161 34.71876,10.1829 18.7,5.23129 34.1125,9.55007 34.25,9.59729 0.1375,0.0472 0.25,-48.06415 0.25,-106.91415 z m 51.46513,97.18356 34.96512,-9.73062 5.23218,-57.97647 c 2.8777,-31.88706 5.2559,-58.31397 5.28488,-58.72647 0.029,-0.4125 -11.02432,-0.75 -24.56289,-0.75 l -24.61559,0 0.72831,-19.25 c 0.40056,-10.5875 0.92913,-19.5875 1.1746,-20 0.24546,-0.4125 8.45184,-0.75 18.2364,-0.75 9.78456,0 21.17158,-0.28584 25.30449,-0.6352 l 7.51439,-0.6352 1.17675,-15.1148 c 0.64721,-8.31314 1.41938,-16.3523 1.71594,-17.8648 l 0.5392,-2.75 -44.57945,0 -44.57946,0 0,57.5 0,57.5 4.75,-0.0382 c 2.6125,-0.021 13.525,-0.64532 24.25,-1.38739 10.725,-0.74207 19.60812,-1.25427 19.74026,-1.13822 0.13215,0.11604 -0.76785,11.6217 -2,25.56813 l -2.24026,25.35715 -22,5.56925 -22,5.56926 -0.27114,19.75 c -0.14913,10.8625 0.0759,19.73069 0.5,19.70709 0.42413,-0.0236 16.50545,-4.42169 35.73627,-9.77353 z m -98.46513,-307.71977 0,-13.53621 9.75,0.28621 9.75,0.28621 0.31336,3.25 c 0.28688,2.97542 0.60371,3.25 3.75,3.25 l 3.43664,0 0,-19 0,-19 10,0 10,0 0,29 0,29 -23.5,0 -23.5,0 0,-13.53621 z m 64,4.03621 0,-9.5 7.5,0 c 4.125,0 7.5,-0.23811 7.5,-0.52913 0,-0.29102 -3.6,-5.62357 -8,-11.85011 l -8,-11.321 0,-7.64988 0,-7.64988 24.03498,0 24.03499,0 -0.28499,10.25 -0.28498,10.25 -6.75,0.29569 c -3.7125,0.16263 -6.75,0.54394 -6.75,0.84736 0,0.30342 3.15,4.54497 7,9.42567 l 7,8.87399 0,9.02865 0,9.02864 -23.5,0 -23.5,0 0,-9.5 z"
         id="path5943"
         inkscape:connector-curvature="0" />
      <path
         style="fill:#f79b33"
         d="m 279.21429,632.95292 c -33.825,-9.40331 -61.61772,-17.17039 -61.76161,-17.26018 -0.14388,-0.0898 -6.31616,-68.29554 -13.71618,-151.56833 -7.40002,-83.27278 -13.65198,-153.09256 -13.89324,-155.15506 l -0.43866,-3.75 151.90485,0 c 143.99705,0 151.90587,0.0911 151.92469,1.75 0.0569,5.01811 -27.30464,307.84382 -27.86229,308.36751 -0.4985,0.46814 -115.56756,32.57106 -123.15756,34.35952 -0.825,0.1944 -29.175,-7.34016 -63,-16.74346 z m 55,-157.73357 0,-107 -16.84981,0 -16.84982,0 0.37181,7.25 c 0.93411,18.21438 5.41753,157.99363 5.07852,158.33264 -0.3559,0.35589 -20.68903,-5.18183 -21.29664,-5.80013 -0.15269,-0.15538 -0.65482,-5.00241 -1.11584,-10.77119 l -0.83822,-10.48867 -12.46288,-2.21511 c -6.85459,-1.21831 -12.53493,-2.1234 -12.62298,-2.01132 -0.40988,0.52175 5.2041,59.65535 5.7117,60.16296 0.73111,0.73111 66.76354,19.29998 69.12416,19.43829 1.6564,0.0971 1.75,-5.62031 1.75,-106.89747 z m 50.90241,97.42444 c 19.02012,-5.26655 34.65948,-9.65405 34.75414,-9.75 0.25585,-0.25933 10.34345,-112.85133 10.34345,-115.44769 l 0,-2.22675 -24.56024,0 -24.56024,0 0.59169,-12.25 c 0.32542,-6.7375 0.8347,-15.44608 1.13173,-19.35241 l 0.54004,-7.10241 10.58407,-0.64759 c 5.82124,-0.35617 17.26407,-0.64759 25.42851,-0.64759 13.45958,0 14.84721,-0.16326 14.87415,-1.75 0.0163,-0.9625 0.67797,-8.275 1.47029,-16.25 0.79232,-7.975 1.45394,-15.5125 1.47029,-16.75 l 0.0297,-2.25 -44.5,0 -44.5,0 0,58.09819 0,58.09818 5.75,-0.58783 c 12.78215,-1.30675 41.36277,-2.82911 41.95701,-2.23486 1.11614,1.11614 -3.38856,48.81147 -4.68584,49.61324 -0.65328,0.40375 -10.6003,3.10846 -22.10448,6.01047 l -20.91669,5.27638 0,19.86311 c 0,14.40375 0.31888,19.86312 1.16019,19.86312 0.6381,0 16.7221,-4.309 35.74222,-9.57556 z m -98.90241,-307.42444 0,-13 9.43664,0 9.43664,0 0.31336,3.25 c 0.28608,2.9671 0.63978,3.27702 4.06336,3.56036 l 3.75,0.31037 0,-19.56037 0,-19.56036 10,0 10,0 0,29 0,29 -23.5,0 -23.5,0 0,-13 z m 65,3.54206 0,-9.45793 7.39365,-0.29207 7.39365,-0.29206 -8.34969,-11.5 -8.3497,-11.5 -0.044,-7.75 -0.044,-7.75 24,0 24,0 0,10 0,10 -7.5,0 c -4.125,0 -7.5,0.25993 -7.5,0.57763 0,0.31769 3.375,4.88519 7.5,10.15 l 7.5,9.57238 0,8.85 0,8.84999 -23,0 -23,0 0,-9.45794 z"
         id="path5941"
         inkscape:connector-curvature="0" />
      <path
         style="fill:#f48132"
         d="m 279.71429,633.01037 c -33.55,-9.34274 -61.358,-17.32325 -61.79555,-17.73446 -0.43755,-0.41121 -6.82906,-68.65466 -14.20336,-151.65211 -7.3743,-82.99745 -13.61098,-152.59195 -13.8593,-154.65445 l -0.45148,-3.75 151.90485,0 151.90484,0 0,2.04863 c 0,2.19747 -26.8546,304.5051 -27.25862,306.85578 -0.1648,0.95882 -19.34665,6.71206 -60.45783,18.13317 -33.11905,9.20082 -61.24405,16.95635 -62.5,17.23451 -1.30105,0.28814 -28.52899,-6.80289 -63.28355,-16.48107 z m 113.36502,-23.26111 c 26.60077,-7.38464 48.62396,-13.68556 48.94043,-14.00202 0.42648,-0.42648 23.87929,-257.09831 24.1478,-264.27789 0.0369,-0.98717 -13.09498,-1.25 -62.45325,-1.25 l -62.5,0 0,146.5 c 0,138.86542 0.0912,146.49887 1.75,146.47827 0.9625,-0.012 23.51426,-6.06372 50.11502,-13.44836 z m -58.86502,-134.52991 0,-107 -16.90544,0 -16.90544,0 0.43214,7.75 c 0.87277,15.6524 5.46827,157.4938 5.11409,157.84798 -0.34883,0.34884 -20.72868,-5.2266 -21.25724,-5.81547 -0.13947,-0.15538 -0.6416,-5.00219 -1.11584,-10.77069 l -0.86227,-10.48818 -12.42788,-2.25061 c -6.83534,-1.23783 -12.52119,-2.14315 -12.63523,-2.01182 -0.47445,0.54639 5.11638,59.62831 5.69739,60.20792 0.78537,0.7835 66.69765,19.32783 69.11572,19.44562 1.65629,0.0807 1.75,-5.64418 1.75,-106.91475 z m -48,-210 0,-13 9.43664,0 9.43664,0 0.31336,3.25 c 0.28608,2.9671 0.63978,3.27702 4.06336,3.56036 l 3.75,0.31037 0,-19.56037 0,-19.56036 10,0 10,0 0,29 0,29 -23.5,0 -23.5,0 0,-13 z m 65,3.54206 0,-9.45793 7.39365,-0.29207 7.39365,-0.29206 -8.34969,-11.5 -8.3497,-11.5 -0.044,-7.75 -0.044,-7.75 24,0 24,0 0,10 0,10 -7.5,0 c -4.125,0 -7.5,0.25993 -7.5,0.57763 0,0.31769 3.375,4.88519 7.5,10.15 l 7.5,9.57238 0,8.85 0,8.84999 -23,0 -23,0 0,-9.45794 z"
         id="path5939"
         inkscape:connector-curvature="0" />
      <path
         style="fill:#030303"
         d="m 286.21429,265.21935 0,-13 9.5,0 9.5,0 0,3.5 c 0,3.41667 0.0952,3.5 4,3.5 l 4,0 0,-19.5 0,-19.5 10,0 10,0 0,29 0,29 -23.5,0 -23.5,0 0,-13 z m 65,3.54206 0,-9.45793 7.33233,-0.29207 7.33234,-0.29206 -8.33234,-11.86059 -8.33233,-11.86059 0,-7.38941 0,-7.38941 24,0 24,0 0,10 0,10 -7.5,0 c -4.125,0 -7.5,0.27938 -7.5,0.62085 0,0.34146 3.375,4.91861 7.5,10.17145 l 7.5,9.5506 0,8.82855 0,8.82855 -23,0 -23,0 0,-9.45794 z"
         id="path5937"
         inkscape:connector-curvature="0" />
    </g>
  </g>
</svg>
